<svg width="110" height="100" viewBox="0 0 110 100" fill="none" xmlns="http://www.w3.org/2000/svg">
    <path d="M87.0833 4.16666L64.1666 25V70.8333L87.0833 52.0833V4.16666ZM4.58331 25V86.0417C4.58331 87.0833 5.72915 88.125 6.87498 88.125C7.33331 88.125 7.56248 87.9167 8.02081 87.9167C14.2083 85.2083 23.1458 83.3333 29.7916 83.3333C38.7291 83.3333 48.3541 85 55 89.5833V25C48.3541 20.4167 38.7291 18.75 29.7916 18.75C20.8541 18.75 11.2291 20.4167 4.58331 25ZM105.417 81.25V25C102.667 23.125 99.6875 21.875 96.25 20.8333V77.0833C91.2083 75.625 85.7083 75 80.2083 75C72.4166 75 61.1875 77.7083 55 81.25V89.5833C61.1875 86.0417 72.4166 83.3333 80.2083 83.3333C87.7708 83.3333 95.5625 84.5833 101.979 87.7083C102.437 87.9167 102.667 87.9167 103.125 87.9167C104.271 87.9167 105.417 86.875 105.417 85.8333V81.25Z" fill="#9E0131" />
    <path d="M20.95 49.25H16V63H20.95V49.25Z" fill="white" />
    <path d="M34.5625 39.5625C35.3669 38.6125 36.6168 38 37.9038 38C40.1932 38 41.9876 39.8125 41.9876 42.125C41.9876 44.9625 38.3864 48.25 34.5625 51.75C30.7387 48.2375 27.1375 44.95 27.1375 42.125C27.1375 39.8125 28.9319 38 31.2213 38C32.5083 38 33.7582 38.6125 34.5625 39.5625Z" fill="white" />
    <path d="M39.5126 56.75H30.8501L28.2637 55.8375L28.6721 54.6625L30.8501 55.5H34.3399C35.1442 55.5 35.8001 54.8375 35.8001 54.025C35.8001 53.4125 35.4165 52.8625 34.8472 52.6375L25.8629 49.25H23.425V60.525L32.0876 63L42 59.25C41.9876 57.875 40.8863 56.75 39.5126 56.75Z" fill="white" />
</svg>